# Blender v2.79 (sub 0) OBJ File: 'nature.blend'
# www.blender.org
o Cube.006_Cube.000
v -0.303224 -0.301483 0.455357
v -0.333863 -0.199729 0.429960
v -0.576243 -0.339426 0.321602
v -0.817981 0.385489 -0.146777
v -0.885886 -0.203006 0.036005
v -0.662250 -0.348357 0.253489
v 0.568390 0.435149 0.025205
v 0.293637 -0.422408 0.603139
v 0.017401 -0.417009 0.713359
v -0.248959 0.066616 0.453127
v -0.066667 0.505636 0.546044
v 0.601735 -0.239144 0.357605
v 0.292922 0.446998 0.341598
v 0.419883 0.357244 -0.367400
v 0.640579 0.364833 -0.020681
v 0.866268 -0.098683 -0.029881
v 0.088052 0.186780 -0.790652
v 0.142687 -0.319016 -0.719383
v 0.324988 -0.444507 -0.562378
v 0.414162 -0.445914 -0.488679
v 0.794745 -0.161902 -0.189144
v 0.371216 0.207761 -0.557946
v -0.354166 0.658733 0.196355
v -0.225280 0.562505 -0.636428
v -0.797842 0.416310 -0.168945
v -0.795852 0.426384 -0.142241
v -0.107701 0.709860 -0.384949
v -0.109905 0.701115 -0.407383
v -0.159256 0.708430 -0.308109
v -0.545971 0.615493 0.024823
v -0.576243 -0.339426 0.321602
v -0.576243 -0.339426 0.321602
v -0.303224 -0.301483 0.455357
v -0.303224 -0.301483 0.455357
v -0.333863 -0.199729 0.429960
v -0.333863 -0.199729 0.429960
v -0.797842 0.416310 -0.168945
v -0.797842 0.416310 -0.168945
v -0.817981 0.385489 -0.146777
v -0.817981 0.385489 -0.146777
v 0.142687 -0.319016 -0.719383
v 0.142687 -0.319016 -0.719383
v -0.885886 -0.203006 0.036005
v -0.885886 -0.203006 0.036005
v 0.324988 -0.444507 -0.562378
v 0.324988 -0.444507 -0.562378
v -0.662250 -0.348357 0.253489
v -0.662250 -0.348357 0.253489
v -0.795852 0.426384 -0.142241
v -0.795852 0.426384 -0.142241
v -0.107701 0.709860 -0.384949
v -0.107701 0.709860 -0.384949
v 0.568390 0.435149 0.025205
v 0.568390 0.435149 0.025205
v 0.640579 0.364833 -0.020681
v 0.640579 0.364833 -0.020681
v 0.414162 -0.445914 -0.488679
v 0.414162 -0.445914 -0.488679
v 0.293637 -0.422408 0.603139
v 0.293637 -0.422408 0.603139
v 0.017401 -0.417009 0.713359
v 0.017401 -0.417009 0.713359
v -0.248959 0.066616 0.453127
v -0.248959 0.066616 0.453127
v -0.354166 0.658733 0.196355
v -0.354166 0.658733 0.196355
v -0.066667 0.505636 0.546044
v -0.066667 0.505636 0.546044
v 0.866268 -0.098683 -0.029881
v 0.866268 -0.098683 -0.029881
v 0.601735 -0.239144 0.357605
v 0.601735 -0.239144 0.357605
v 0.292922 0.446998 0.341598
v 0.292922 0.446998 0.341598
v -0.109905 0.701115 -0.407383
v -0.109905 0.701115 -0.407383
v 0.419883 0.357244 -0.367400
v 0.419883 0.357244 -0.367400
v 0.794745 -0.161902 -0.189144
v 0.794745 -0.161902 -0.189144
v 0.371216 0.207761 -0.557946
v 0.371216 0.207761 -0.557946
v 0.088052 0.186780 -0.790652
v 0.088052 0.186780 -0.790652
v -0.159256 0.708430 -0.308109
v -0.159256 0.708430 -0.308109
v -0.225280 0.562505 -0.636428
v -0.225280 0.562505 -0.636428
v -0.545971 0.615493 0.024823
v -0.545971 0.615493 0.024823
vt 0.374620 0.828946
vt 0.377758 0.689491
vt 0.476394 0.728542
vt 0.537978 0.687018
vt 0.606487 0.890718
vt 0.654408 0.708779
vt 0.950111 0.159604
vt 0.948495 0.247543
vt 0.802216 0.184030
vt 0.771993 0.172005
vt 0.776013 0.178632
vt 0.802216 0.184030
vt 0.025907 0.830235
vt 0.190519 0.969081
vt 0.285424 0.796771
vt 0.498807 0.334680
vt 0.576991 0.377311
vt 0.489720 0.370433
vt 0.276468 0.051901
vt 0.322806 0.471524
vt 0.322806 0.030920
vt 0.468923 0.245193
vt 0.489720 0.370433
vt 0.498807 0.334680
vt 0.085109 0.698838
vt 0.145184 0.553829
vt 0.279512 0.628585
vt 0.710795 0.723025
vt 0.771837 0.910309
vt 0.931357 0.879342
vt 0.931357 0.879342
vt 0.960399 0.880474
vt 0.854579 0.509481
vt 0.948495 0.247543
vt 0.802216 0.184030
vt 0.864480 0.403368
vt 0.537978 0.687018
vt 0.470651 0.487272
vt 0.476894 0.483958
vt 0.693439 0.107168
vt 0.596033 0.037185
vt 0.468923 0.245193
vt 0.974093 0.030920
vt 0.964371 0.034208
vt 0.969290 0.041911
vt 0.092281 0.449243
vt 0.128931 0.063801
vt 0.082726 0.439866
vt 0.377758 0.689491
vt 0.390669 0.514367
vt 0.470651 0.487272
vt 0.606487 0.890718
vt 0.462793 0.904423
vt 0.432078 0.890052
vt 0.476394 0.728542
vt 0.658981 0.878729
vt 0.950111 0.159604
vt 0.964371 0.034208
vt 0.969290 0.041911
vt 0.750486 0.077158
vt 0.085109 0.698838
vt 0.028108 0.930833
vt 0.297681 0.939548
vt 0.267108 0.491990
vt 0.374620 0.422119
vt 0.297681 0.659038
vt 0.285424 0.796771
vt 0.740785 0.578104
vt 0.720938 0.890841
vt 0.960399 0.483958
vt 0.931591 0.484759
vt 0.766126 0.495025
vt 0.740785 0.578104
vt 0.776013 0.178632
vt 0.745253 0.393502
vt 0.974093 0.374227
vt 0.658981 0.672005
vt 0.654408 0.708779
vt 0.498807 0.334680
vt 0.576991 0.377311
vt 0.608584 0.377048
vt 0.693439 0.316996
vt 0.686530 0.093440
vt 0.521902 0.030920
vt 0.400809 0.100456
vt 0.267108 0.491990
vt 0.276468 0.051901
vt 0.025907 0.190046
vt 0.537978 0.687018
vt 0.476394 0.728542
vn 0.6362 -0.0399 -0.7705
vn -0.7741 -0.3868 0.5012
vn -0.2269 0.9739 0.0083
vn 0.4494 -0.8464 0.2858
vn 0.0051 -0.2881 -0.9576
vn -0.4480 0.0872 0.8898
vn 0.3429 0.8866 0.3105
vn 0.4758 -0.0755 -0.8763
vn 0.7164 0.3367 0.6111
vn -0.5554 0.8278 -0.0791
vn 0.0867 0.9925 -0.0860
vn -0.2651 -0.9442 -0.1954
vn 0.5280 0.7724 -0.3530
vn 0.6467 -0.2199 -0.7303
vn 0.8679 -0.4827 0.1174
vn 0.5955 0.1748 0.7841
vn 0.4604 0.6375 -0.6177
vn -0.5091 -0.2483 -0.8241
vn -0.3122 -0.5777 -0.7542
vn -0.4189 0.3512 -0.8374
vn 0.3117 0.9064 0.2852
vn 0.6034 -0.0938 -0.7919
vn -0.0053 0.9923 -0.1234
vn 0.1265 0.9545 0.2702
vn -0.0530 0.9839 -0.1710
vn 0.1984 0.9801 0.0008
vn 0.4365 -0.0611 -0.8976
vn 0.6164 -0.2556 -0.7448
vn 0.5990 -0.2272 -0.7678
vn 0.6081 -0.2986 -0.7355
vn 0.6736 -0.2890 -0.6803
vn 0.6779 -0.1878 -0.7107
vn 0.7268 -0.1605 -0.6678
s off
f 42/1/1 83/2/1 82/3/1
f 78/4/2 79/5/2 56/6/2
f 89/7/3 66/8/3 85/9/3
f 76/10/4 52/11/4 86/12/4
f 60/13/5 64/14/5 74/15/5
f 35/16/6 31/17/6 33/18/6
f 41/19/7 47/20/7 45/21/7
f 63/22/8 34/23/8 36/24/8
f 71/25/9 69/26/9 55/27/9
f 12/28/10 21/29/10 57/30/10
f 20/31/11 19/32/11 1/33/11
f 65/34/12 29/35/12 13/36/12
f 77/37/13 75/38/13 27/39/13
f 40/40/14 30/41/14 10/42/14
f 39/43/15 37/44/15 26/45/15
f 4/46/16 84/47/16 25/48/16
f 17/49/17 24/50/17 28/51/17
f 80/52/1 58/53/1 82/3/1
f 58/53/1 46/54/1 82/3/1
f 46/54/1 42/1/1 82/3/1
f 81/55/2 79/5/2 78/4/2
f 79/5/2 70/56/2 56/6/2
f 86/12/4 90/57/4 38/58/4
f 90/57/4 50/59/4 38/58/4
f 38/58/4 88/60/4 86/12/4
f 88/60/4 76/10/4 86/12/4
f 74/15/18 72/61/18 60/13/18
f 60/13/19 62/62/19 64/14/19
f 64/14/20 68/63/20 74/15/20
f 41/19/21 43/64/21 47/20/21
f 63/22/22 61/65/22 34/23/22
f 54/66/9 73/67/9 55/27/9
f 73/67/9 71/25/9 55/27/9
f 57/30/10 59/68/10 12/28/10
f 12/28/10 16/69/10 21/29/10
f 19/32/23 48/70/23 32/71/23
f 1/33/24 9/72/24 8/73/24
f 19/32/25 32/71/25 1/33/25
f 8/73/26 20/31/26 1/33/26
f 51/74/12 53/75/12 29/35/12
f 53/75/12 13/36/12 29/35/12
f 13/36/12 67/76/12 65/34/12
f 27/39/13 7/77/13 77/37/13
f 7/77/13 15/78/13 77/37/13
f 2/79/27 3/80/27 10/42/27
f 3/80/28 6/81/28 10/42/28
f 6/81/29 44/82/29 10/42/29
f 44/82/30 40/40/30 10/42/30
f 40/40/31 49/83/31 30/41/31
f 30/41/32 23/84/32 10/42/32
f 23/84/33 11/85/33 10/42/33
f 4/46/16 5/86/16 84/47/16
f 5/86/16 18/87/16 84/47/16
f 84/47/16 87/88/16 25/48/16
f 28/51/17 14/89/17 22/90/17
f 22/90/17 17/49/17 28/51/17
